<svg height="46" viewBox="0 0 435.646 435.646" width="46" xmlns="http://www.w3.org/2000/svg" xmlns:xlink="http://www.w3.org/1999/xlink"><linearGradient id="lg1"><stop offset=".322" stop-color="#a163f5"/><stop offset=".466" stop-color="#b074ee"/><stop offset=".752" stop-color="#d8a1dd"/><stop offset=".898" stop-color="#efbad3"/></linearGradient><linearGradient id="linear0" gradientUnits="userSpaceOnUse" x1="217.823" x2="217.823" xlink:href="#lg1" y1="449.823" y2="-.959"/><linearGradient id="linear2" gradientUnits="userSpaceOnUse" x1="239.823" x2="239.823" xlink:href="#lg1" y1="449.823" y2="-.959"/><linearGradient id="linear3" gradientUnits="userSpaceOnUse" x1="195.823" x2="195.823" xlink:href="#lg1" y1="449.823" y2="-.959"/><linearGradient id="linear4" gradientUnits="userSpaceOnUse" x1="152.823" x2="152.823" xlink:href="#lg1" y1="449.823" y2="-.959"/><linearGradient id="linear5" gradientUnits="userSpaceOnUse" x1="282.823" x2="282.823" xlink:href="#lg1" y1="449.823" y2="-.959"/><linearGradient id="linear10" gradientUnits="userSpaceOnUse" x1="404.646" x2="404.646" xlink:href="#lg1" y1="449.823" y2="-.959"/><linearGradient id="linear14" gradientUnits="userSpaceOnUse" x1="31" x2="31" xlink:href="#lg1" y1="449.823" y2="-.959"/><linearGradient id="linear18" gradientUnits="userSpaceOnUse" x1="204.789" x2="204.789" xlink:href="#lg1" y1="449.823" y2="-.959"/><linearGradient id="linear19" gradientUnits="userSpaceOnUse" x1="248.823" x2="248.823" xlink:href="#lg1" y1="449.823" y2="-.959"/><path d="m323.824219 137.824219c0-14.359375-11.640625-26-26-26h-160c-14.359375 0-26 11.640625-26 26v160c0 14.359375 11.640625 26 26 26h160c14.359375 0 26-11.640625 26-26zm-12 160c0 7.730469-6.269531 14-14 14h-160c-7.734375 0-14-6.269531-14-14v-160c0-7.734375 6.265625-14 14-14h160c7.730469 0 14 6.265625 14 14zm0 0" fill="url(#linear0)"/><path d="m353.824219 117.824219c0-19.882813-16.117188-36-36-36h-200c-19.882813 0-36 16.117187-36 36v200c0 19.882812 16.117187 36 36 36h200c19.882812 0 36-16.117188 36-36zm-12 200c0 13.253906-10.746094 24-24 24h-200c-13.257813 0-24-10.746094-24-24v-200c0-13.257813 10.742187-24 24-24h200c13.253906 0 24 10.742187 24 24zm0 0" fill="url(#linear0)"/><path d="m239.824219 373.644531c-3.316407 0-6 2.6875-6 6v50c0 3.316407 2.683593 6 6 6 3.3125 0 6-2.683593 6-6v-50c0-3.3125-2.6875-6-6-6zm0 0" fill="url(#linear2)"/><path d="m195.824219 373.644531c-3.316407 0-6 2.6875-6 6v50c0 3.316407 2.683593 6 6 6 3.3125 0 6-2.683593 6-6v-50c0-3.3125-2.6875-6-6-6zm0 0" fill="url(#linear3)"/><path d="m152.824219 373.644531c-3.316407 0-6 2.6875-6 6v50c0 3.316407 2.683593 6 6 6 3.3125 0 6-2.683593 6-6v-50c0-3.3125-2.6875-6-6-6zm0 0" fill="url(#linear4)"/><path d="m282.824219 373.644531c-3.316407 0-6 2.6875-6 6v50c0 3.316407 2.683593 6 6 6 3.3125 0 6-2.683593 6-6v-50c0-3.3125-2.6875-6-6-6zm0 0" fill="url(#linear5)"/><path d="m195.824219 62c3.3125 0 6-2.6875 6-6v-50c0-3.3125-2.6875-6-6-6-3.316407 0-6 2.6875-6 6v50c0 3.3125 2.683593 6 6 6zm0 0" fill="url(#linear3)"/><path d="m239.824219 62c3.3125 0 6-2.6875 6-6v-50c0-3.3125-2.6875-6-6-6-3.316407 0-6 2.6875-6 6v50c0 3.3125 2.683593 6 6 6zm0 0" fill="url(#linear2)"/><path d="m282.824219 62c3.3125 0 6-2.6875 6-6v-50c0-3.3125-2.6875-6-6-6-3.316407 0-6 2.6875-6 6v50c0 3.3125 2.683593 6 6 6zm0 0" fill="url(#linear5)"/><path d="m152.824219 62c3.3125 0 6-2.6875 6-6v-50c0-3.3125-2.6875-6-6-6-3.316407 0-6 2.6875-6 6v50c0 3.3125 2.683593 6 6 6zm0 0" fill="url(#linear4)"/><g fill="url(#linear10)"><path d="m429.644531 189.824219h-50c-3.3125 0-6 2.683593-6 6 0 3.3125 2.6875 6 6 6h50c3.316407 0 6-2.6875 6-6 0-3.316407-2.683593-6-6-6zm0 0"/><path d="m429.644531 233.824219h-50c-3.3125 0-6 2.683593-6 6 0 3.3125 2.6875 6 6 6h50c3.316407 0 6-2.6875 6-6 0-3.316407-2.683593-6-6-6zm0 0"/><path d="m429.644531 276.824219h-50c-3.3125 0-6 2.683593-6 6 0 3.3125 2.6875 6 6 6h50c3.316407 0 6-2.6875 6-6 0-3.316407-2.683593-6-6-6zm0 0"/><path d="m429.644531 146.824219h-50c-3.3125 0-6 2.683593-6 6 0 3.3125 2.6875 6 6 6h50c3.316407 0 6-2.6875 6-6 0-3.316407-2.683593-6-6-6zm0 0"/></g><path d="m56 233.824219h-50c-3.3125 0-6 2.683593-6 6 0 3.3125 2.6875 6 6 6h50c3.3125 0 6-2.6875 6-6 0-3.316407-2.6875-6-6-6zm0 0" fill="url(#linear14)"/><path d="m56 189.824219h-50c-3.3125 0-6 2.683593-6 6 0 3.3125 2.6875 6 6 6h50c3.3125 0 6-2.6875 6-6 0-3.316407-2.6875-6-6-6zm0 0" fill="url(#linear14)"/><path d="m56 146.824219h-50c-3.3125 0-6 2.683593-6 6 0 3.3125 2.6875 6 6 6h50c3.3125 0 6-2.6875 6-6 0-3.316407-2.6875-6-6-6zm0 0" fill="url(#linear14)"/><path d="m56 276.824219h-50c-3.3125 0-6 2.683593-6 6 0 3.3125 2.6875 6 6 6h50c3.3125 0 6-2.6875 6-6 0-3.316407-2.6875-6-6-6zm0 0" fill="url(#linear14)"/><path d="m212.214844 175.28125c-.882813-2.640625-4.179688-3.960938-7.480469-3.960938s-6.492187 1.320313-7.371094 3.960938l-21.890625 71.277344c-.089844.324218-.125.660156-.109375.992187 0 2.859375 4.070313 4.839844 7.261719 4.839844 1.980469 0 3.519531-.421875 4.070312-2.183594l4.507813-15.382812h27.171875l4.507812 15.382812c.550782 1.761719 2.089844 2.300781 3.960938 2.300781 3.300781 0 7.371094-2.148437 7.371094-4.902343-.019532-.347657-.09375-.691407-.222656-1.019531zm-18.480469 49.542969 11-37.730469 11 37.730469zm0 0" fill="url(#linear18)"/><path d="m248.824219 171.980469c-2.859375 0-6 1.097656-6 3.738281v72.820312c0 2.53125 3.140625 3.851563 6 3.851563 2.96875 0 6-1.320313 6-3.851563v-72.816406c0-2.644531-3.03125-3.742187-6-3.742187zm0 0" fill="url(#linear19)"/></svg>